<svg xmlns="http://www.w3.org/2000/svg" width="171.661" height="61.783" viewBox="0 0 171.661 61.783">
  <path id="icons8-nike" d="M21.994,18.748C10.823,31.864,0,47.7,0,60.3c0,7.269,6.115,17.488,21.055,17.488,8.073,0,16.093-3.245,22.369-5.753,10.581-4.238,127.511-55.011,127.511-55.011,1.126-.563.925-1.274-.5-.926-.563.148-127.3,34.493-127.3,34.493a27.446,27.446,0,0,1-7.362,1.059c-10.957,0-18.346-5.257-18.346-16.75C17.434,30.442,18.829,25.065,21.994,18.748Z" transform="translate(0 -16)" fill-rule="evenodd"/>
</svg>
