<svg xmlns="http://www.w3.org/2000/svg" width="160.6" height="61.064" viewBox="0 0 160.6 61.064">
  <g id="Group_15" data-name="Group 15" transform="translate(-881.793 -36.664)">
    <path id="Path_5" data-name="Path 5" d="M28.438-50.781,27.295-41.26H17.773L13.489-6.348H23.01L21.836,3.174H2.793l6.6-53.955ZM41.926-31.357,38.086,0H28.564l6.665-54.336L68.65-16.25l3.84-31.357h9.521L75.347,6.729Z" transform="translate(879 91)" fill="#fff"/>
    <path id="Path_6" data-name="Path 6" d="M42.434-9.521,47.1-47.607h9.521L50.781,0H3.174l5.84-47.607h9.521L13.87-9.521h9.521l4.666-38.086h9.521L32.913-9.521Zm14.314,12.7,1.174-9.521h9.521L71.729-41.26H62.207l1.143-9.521H82.393l-6.6,53.955Z" transform="translate(960 91)" fill="#ee541b"/>
  </g>
</svg>
